HIERARCHY
ROOT Hips
{
	OFFSET 58.058300 -27.200315 97.023994
	CHANNELS 6 Xposition Yposition Zposition Xrotation Yrotation Zrotation
	JOINT spine
	{
		OFFSET 0.000000 -0.458069 7.965683
		CHANNELS 3 Xrotation Yrotation Zrotation
		JOINT spine1
		{
			OFFSET 0.000000 -0.000002 10.243103
			CHANNELS 3 Xrotation Yrotation Zrotation
			JOINT spine2
			{
				OFFSET 0.000000 -0.000002 9.814751
				CHANNELS 3 Xrotation Yrotation Zrotation
				JOINT Neck
				{
					OFFSET 0.000000 -1.201384 25.198608
					CHANNELS 3 Xrotation Yrotation Zrotation
					JOINT Head
					{
						OFFSET 0.000000 0.000000 7.613144
						CHANNELS 3 Xrotation Yrotation Zrotation
						End Site
						{
							OFFSET 0.000000 6.077326 18.428101
						}
					}
				}
				JOINT RightShoulder
				{
					OFFSET -4.132702 0.575449 10.599213
					CHANNELS 3 Xrotation Yrotation Zrotation
					JOINT RightArm
					{
						OFFSET 0.000000 -0.000002 13.901794
						CHANNELS 3 Xrotation Yrotation Zrotation
						JOINT RightArmRoll
						{
							OFFSET 0.000000 0.000000 7.017883
							CHANNELS 3 Xrotation Yrotation Zrotation
							JOINT RightForeArm
							{
								OFFSET 0.000000 -0.000004 20.440598
								CHANNELS 3 Xrotation Yrotation Zrotation
								JOINT RightForeArmRoll
								{
									OFFSET 0.000000 -0.000002 7.875153
									CHANNELS 3 Xrotation Yrotation Zrotation
									JOINT RightHand
									{
										OFFSET 0.000000 -0.000002 15.803696
										CHANNELS 3 Xrotation Yrotation Zrotation
										End Site
										{
											OFFSET 0.000000 0.000000 0.100006
										}
									}
								}
							}
						}
					}
				}
				JOINT LeftShoulder
				{
					OFFSET 4.132702 0.575449 10.599213
					CHANNELS 3 Xrotation Yrotation Zrotation
					JOINT LeftArm
					{
						OFFSET 0.000000 -0.000002 13.901794
						CHANNELS 3 Xrotation Yrotation Zrotation
						JOINT LeftArmRoll
						{
							OFFSET 0.000000 0.000000 7.017883
							CHANNELS 3 Xrotation Yrotation Zrotation
							JOINT LeftForeArm
							{
								OFFSET 0.000000 -0.000004 20.440598
								CHANNELS 3 Xrotation Yrotation Zrotation
								JOINT LeftForeArmRoll
								{
									OFFSET 0.000000 -0.000002 7.875153
									CHANNELS 3 Xrotation Yrotation Zrotation
									JOINT LeftHand
									{
										OFFSET 0.000000 -0.000002 15.803696
										CHANNELS 3 Xrotation Yrotation Zrotation
										End Site
										{
											OFFSET 0.000000 0.000000 0.100006
										}
									}
								}
							}
						}
					}
				}
			}
		}
	}
	JOINT RightUpLeg
	{
		OFFSET -7.060482 1.086100 -1.294701
		CHANNELS 3 Xrotation Yrotation Zrotation
		JOINT RightUpLegRoll
		{
			OFFSET 0.000000 -0.000004 18.530800
			CHANNELS 3 Xrotation Yrotation Zrotation
			JOINT RightLeg
			{
				OFFSET 0.000000 0.000004 -22.947601
				CHANNELS 3 Xrotation Yrotation Zrotation
				JOINT RightLegRoll
				{
					OFFSET 0.000000 -0.000004 23.022598
					CHANNELS 3 Xrotation Yrotation Zrotation
					JOINT RightFoot
					{
						OFFSET 0.000000 -0.000002 19.162514
						CHANNELS 3 Xrotation Yrotation Zrotation
						JOINT RightToeBase
						{
							OFFSET 0.000000 -0.000004 16.018799
							CHANNELS 3 Xrotation Yrotation Zrotation
							End Site
							{
								OFFSET 0.006790 0.894205 7.757828
							}
						}
					}
				}
			}
		}
	}
	JOINT LeftUpLeg
	{
		OFFSET 7.060482 1.086100 -1.294701
		CHANNELS 3 Xrotation Yrotation Zrotation
		JOINT LeftUpLegRoll
		{
			OFFSET 0.000000 -0.000004 18.530899
			CHANNELS 3 Xrotation Yrotation Zrotation
			JOINT LeftLeg
			{
				OFFSET 0.000000 -0.000004 22.947510
				CHANNELS 3 Xrotation Yrotation Zrotation
				JOINT LeftLegRoll
				{
					OFFSET 0.000000 -0.000004 23.235504
					CHANNELS 3 Xrotation Yrotation Zrotation
					JOINT LeftFoot
					{
						OFFSET 0.000000 -0.000002 18.949600
						CHANNELS 3 Xrotation Yrotation Zrotation
						JOINT LeftToeBase
						{
							OFFSET 0.000000 -0.000004 16.018799
							CHANNELS 3 Xrotation Yrotation Zrotation
							End Site
							{
								OFFSET -0.030426 0.894205 7.757828
							}
						}
					}
				}
			}
		}
	}
}
MOTION
Frames: 13
Frame Time: 0.041667
58.449402 -26.308819 96.950096 -4.661698 -0.002752 2.397526 -0.663763 -0.077414 -0.326831 2.674870 -0.157897 -0.642678 4.319909 -0.165449 -0.640698 7.115071 4.690574 1.412099 8.846095 -3.561696 1.634479 -14.859078 -70.250633 -17.838653 -61.502479 -102.139004 -38.623173 -0.000000 0.000000 0.000001 12.149466 0.187860 -0.922105 -0.000000 0.000026 -3.007802 -5.000136 -8.000078 -0.000014 -4.592849 64.063787 5.900898 -47.622654 106.412462 34.145051 0.000001 -0.000021 0.000003 3.863367 3.659352 0.764220 0.000001 0.000012 3.000000 -5.000221 7.999599 -0.000051 3.725164 -176.163105 3.881575 -179.999991 0.000005 -1.210004 174.883428 -1.626493 -0.470618 -0.000003 -0.000004 0.056733 69.195560 6.948395 1.994661 25.456952 -7.355614 0.000002 4.180469 174.544460 -2.881391 -0.000020 -0.000004 -1.193220 -7.453109 2.643905 0.339728 0.000000 0.000001 -0.139624 70.375325 -6.901388 -1.999910 25.456957 7.355613 -0.000002 
58.450802 -26.300322 96.949295 -4.650178 -0.002793 2.387443 -0.663683 -0.077429 -0.327657 2.675041 -0.157661 -0.644106 4.320078 -0.165238 -0.642133 7.188636 4.663686 1.418479 8.835748 -3.561510 1.646392 -14.903338 -70.212186 -17.887004 -61.085394 -102.049139 -38.036091 -0.000000 0.000001 0.000001 12.308880 0.304927 -0.929433 0.000000 0.000028 -3.007801 -5.000137 -8.000075 -0.000011 -4.604775 64.065207 5.914675 -47.407523 106.326279 33.922961 0.000001 -0.000023 0.000002 4.010407 3.670277 0.758948 0.000001 0.000013 3.000000 -5.000222 7.999600 -0.000049 3.708304 -176.159034 3.880385 -179.999991 0.000005 -1.210004 174.882499 -1.627485 -0.470733 -0.000003 -0.000004 0.056733 69.192801 6.948367 1.994730 25.456952 -7.355617 0.000003 4.168834 174.546372 -2.879920 -0.000020 -0.000004 -1.193240 -7.452127 2.646964 0.339657 0.000000 0.000001 -0.139624 70.373201 -6.901391 -1.999843 25.456950 7.355613 -0.000002 
58.458599 -26.313021 96.946602 -4.638827 -0.002790 2.377064 -0.663527 -0.077451 -0.328444 2.675350 -0.157429 -0.645431 4.320388 -0.165032 -0.643464 7.261726 4.637041 1.424715 8.825702 -3.562001 1.658150 -14.947604 -70.175351 -17.935382 -60.660980 -101.957977 -37.442141 0.000001 -0.000000 0.000001 12.470746 0.421218 -0.937602 -0.000002 0.000026 -3.007804 -5.000135 -8.000079 -0.000010 -4.618398 64.066478 5.930386 -47.188513 106.238415 33.696445 0.000002 -0.000025 0.000001 4.160449 3.681205 0.753513 0.000000 0.000011 2.999999 -5.000220 7.999600 -0.000049 3.691627 -176.155975 3.879160 -179.999991 0.000005 -1.210004 174.881502 -1.628490 -0.470852 -0.000004 -0.000004 0.056733 69.190069 6.948409 1.994708 25.456950 -7.355614 0.000003 4.157930 174.548298 -2.878649 -0.000020 -0.000004 -1.193260 -7.450383 2.650109 0.339548 0.000001 0.000001 -0.139624 70.370749 -6.901385 -1.999894 25.456959 7.355613 -0.000002 
58.453499 -26.309319 96.947685 -4.627608 -0.002755 2.366467 -0.663320 -0.077478 -0.329204 2.675760 -0.157200 -0.646685 4.320798 -0.164828 -0.644725 7.334494 4.610570 1.430872 8.815867 -3.562965 1.669803 -14.991960 -70.139725 -17.983851 -60.229038 -101.866329 -36.840814 -0.000000 -0.000000 0.000002 12.634367 0.536953 -0.946561 0.000001 0.000028 -3.007801 -5.000138 -8.000080 -0.000009 -4.633176 64.067523 5.947409 -46.966997 106.149288 33.466892 0.000003 -0.000023 0.000001 4.312589 3.692119 0.747949 0.000002 0.000012 3.000000 -5.000219 7.999600 -0.000049 3.675090 -176.151904 3.878028 -179.999991 0.000005 -1.210004 174.880437 -1.628487 -0.470882 -0.000003 -0.000004 0.056733 69.187521 6.948392 1.994665 25.456957 -7.355614 0.000003 4.147568 174.549227 -2.877582 -0.000020 -0.000004 -1.193280 -7.448111 2.653335 0.339418 0.000001 0.000001 -0.139623 70.368092 -6.901378 -1.999857 25.456959 7.355612 -0.000002 
58.461601 -26.307020 96.952591 -4.616459 -0.002705 2.355741 -0.663089 -0.077508 -0.329948 2.676230 -0.156974 -0.647899 4.321268 -0.164626 -0.645942 7.407070 4.584201 1.437008 8.806136 -3.564206 1.681395 -15.036197 -70.104700 -18.032210 -59.788232 -101.774812 -36.230803 -0.000000 0.000000 0.000001 12.798945 0.652341 -0.956265 -0.000003 0.000025 -3.007801 -5.000138 -8.000080 -0.000011 -4.648660 64.068534 5.965226 -46.739087 106.060646 33.230574 0.000003 -0.000023 0.000002 4.465933 3.703036 0.742285 0.000001 0.000012 3.000000 -5.000223 7.999600 -0.000049 3.658634 -176.148844 3.876844 -179.999991 0.000005 -1.210004 174.879330 -1.629477 -0.471002 -0.000004 -0.000004 0.056732 69.184892 6.948402 1.994732 25.456950 -7.355615 0.000002 4.137484 174.551153 -2.876511 -0.000020 -0.000004 -1.193310 -7.445529 2.656593 0.339272 0.000000 0.000001 -0.139624 70.365230 -6.901397 -1.999838 25.456952 7.355613 -0.000002 
58.445202 -26.307022 96.950874 -4.605319 -0.002653 2.344987 -0.662845 -0.077538 -0.330687 2.676720 -0.156749 -0.649100 4.321749 -0.164423 -0.647152 7.479598 4.557882 1.443197 8.796443 -3.565525 1.692972 -15.080279 -70.069777 -18.080414 -59.338744 -101.684332 -35.612135 -0.000000 -0.000000 0.000001 12.963885 0.767599 -0.966656 -0.000001 0.000026 -3.007800 -5.000136 -8.000080 -0.000010 -4.664298 64.069633 5.983227 -46.510525 105.971328 32.993488 0.000003 -0.000023 0.000000 4.619572 3.713939 0.736551 -0.000000 0.000011 3.000001 -5.000221 7.999600 -0.000050 3.642195 -176.144787 3.875723 -179.999991 0.000005 -1.210004 174.878237 -1.630467 -0.470125 -0.000003 -0.000004 0.056733 69.182351 6.948383 1.994789 25.456955 -7.355614 0.000002 4.127478 174.553066 -2.875458 -0.000020 -0.000004 -1.193340 -7.442873 2.659862 0.339122 0.000001 0.000001 -0.139623 70.362450 -6.901355 -1.999903 25.456953 7.355613 -0.000002 
58.451302 -26.302420 96.947395 -4.594149 -0.002616 2.334290 -0.662619 -0.077568 -0.331435 2.677170 -0.156522 -0.650323 4.322208 -0.164221 -0.648380 7.552206 4.531555 1.449496 8.786692 -3.566706 1.704583 -15.124238 -70.034629 -18.128463 -58.878997 -101.595587 -34.983266 0.000001 0.000000 0.000001 13.128387 0.882956 -0.977682 -0.000001 0.000028 -3.007799 -5.000136 -8.000078 -0.000010 -4.679603 64.070637 6.000845 -46.280774 105.882617 32.755429 0.000003 -0.000023 0.000001 4.772616 3.724848 0.730792 0.000002 0.000012 3.000001 -5.000222 7.999600 -0.000049 3.625721 -176.141713 3.874536 -179.999991 0.000005 -1.210004 174.877145 -1.631458 -0.470246 -0.000004 -0.000004 0.056733 69.179803 6.948365 1.994745 25.456957 -7.355613 0.000002 4.117324 174.554008 -2.874452 -0.000020 -0.000004 -1.193370 -7.440372 2.663110 0.338979 -0.000000 0.000001 -0.139624 70.359582 -6.901377 -1.999984 25.456953 7.355613 -0.000002 
58.465401 -26.306219 96.949982 -4.582891 -0.002608 2.323761 -0.662426 -0.077593 -0.332202 2.677550 -0.156293 -0.651598 4.322588 -0.164016 -0.649660 7.625048 4.505126 1.455966 8.776787 -3.567552 1.716263 -15.167893 -69.998559 -18.176185 -58.409121 -101.509377 -34.344032 -0.000000 -0.000001 -0.000000 13.291759 0.998619 -0.989279 0.000003 0.000027 -3.007802 -5.000138 -8.000078 -0.000009 -4.694059 64.071778 6.017492 -46.048084 105.795389 32.514426 0.000002 -0.000022 0.000003 4.924167 3.735751 0.725039 0.000001 0.000010 3.000000 -5.000223 7.999602 -0.000049 3.609142 -176.137656 3.873390 -179.999991 0.000005 -1.210004 174.876106 -1.632448 -0.470364 -0.000004 -0.000004 0.056733 69.177167 6.948375 1.994712 25.456950 -7.355616 0.000002 4.106807 174.555934 -2.873270 -0.000020 -0.000004 -1.193389 -7.438248 2.666315 0.338853 0.000001 0.000001 -0.139624 70.357027 -6.901371 -1.999843 25.456953 7.355613 -0.000002 
58.453800 -26.272720 96.951485 -4.571490 -0.002644 2.313469 -0.662293 -0.077613 -0.333001 2.677819 -0.156060 -0.652954 4.322859 -0.163809 -0.651023 7.698248 4.478557 1.462693 8.766651 -3.567866 1.728076 -15.211202 -69.961163 -18.223513 -57.928890 -101.426431 -33.694170 0.000000 -0.000000 -0.000001 13.453295 1.114824 -1.001391 0.000001 0.000029 -3.007800 -5.000136 -8.000078 -0.000012 -4.707185 64.073055 6.032639 -45.813798 105.710011 32.272357 0.000002 -0.000022 0.000001 5.073343 3.746648 0.719320 0.000001 0.000011 3.000000 -5.000221 7.999600 -0.000050 3.592416 -176.134582 3.872142 -179.999991 0.000005 -1.210004 174.875123 -1.633453 -0.470482 -0.000003 -0.000004 0.056733 69.174428 6.948418 1.994691 25.456955 -7.355615 0.000003 4.095681 174.557847 -2.871944 -0.000020 -0.000004 -1.193410 -7.436735 2.669429 0.338756 0.000001 0.000001 -0.139623 70.354691 -6.901366 -1.999886 25.456953 7.355613 -0.000003 
58.474800 -26.275219 96.951698 -4.559899 -0.002739 2.303512 -0.662236 -0.077625 -0.333843 2.677930 -0.155822 -0.654424 4.322968 -0.163597 -0.652498 7.771961 4.451786 1.469724 8.756188 -3.567442 1.740044 -15.254083 -69.921931 -18.270365 -57.437991 -101.347529 -33.033401 0.000000 0.000001 -0.000001 13.612307 1.231775 -1.013945 0.000001 0.000029 -3.007798 -5.000138 -8.000079 -0.000010 -4.718440 64.074496 6.045664 -45.579512 105.626922 32.030794 0.000003 -0.000024 0.000001 5.219210 3.757555 0.713677 0.000002 0.000013 3.000001 -5.000222 7.999601 -0.000049 3.575467 -176.130512 3.870918 -179.999991 0.000005 -1.210004 174.874194 -1.633451 -0.470509 -0.000003 -0.000004 0.056733 69.171668 6.948388 1.994759 25.456953 -7.355614 0.000002 4.083764 174.558776 -2.870482 -0.000020 -0.000004 -1.193420 -7.436055 2.672448 0.338697 0.000001 0.000001 -0.139623 70.352670 -6.901366 -1.999913 25.456955 7.355613 -0.000003 
58.482700 -26.265118 96.953484 -4.548053 -0.002907 2.293999 -0.662282 -0.077627 -0.334741 2.677839 -0.155578 -0.656038 4.322878 -0.163381 -0.654118 7.846302 4.424732 1.477133 8.745303 -3.566074 1.752230 -15.296480 -69.880369 -18.316667 -56.936255 -101.273448 -32.361365 -0.000001 0.000001 -0.000002 13.767995 1.349708 -1.026876 0.000001 0.000027 -3.007800 -5.000135 -8.000080 -0.000013 -4.727372 64.076313 6.056044 -45.343853 105.547077 31.788578 0.000002 -0.000024 0.000002 5.360904 3.768456 0.708141 0.000002 0.000011 3.000000 -5.000224 7.999600 -0.000049 3.558246 -176.127465 3.869582 -179.999991 0.000005 -1.210004 174.873374 -1.634442 -0.470622 -0.000003 -0.000004 0.056733 69.168813 6.948388 1.994736 25.456953 -7.355613 0.000003 4.070779 174.560675 -2.868690 -0.000020 -0.000004 -1.193429 -7.436431 2.675321 0.338688 0.000000 0.000001 -0.139624 70.351085 -6.901373 -1.999911 25.456952 7.355614 -0.000002 
58.478199 -26.264320 96.954201 -4.535909 -0.003163 2.284999 -0.662449 -0.077617 -0.335706 2.677510 -0.155325 -0.657825 4.322538 -0.163158 -0.655911 7.921427 4.397345 1.484985 8.733920 -3.563554 1.764680 -15.338245 -69.835945 -18.362245 -56.424374 -101.204873 -31.678718 0.000000 0.000001 -0.000001 13.919766 1.468831 -1.040106 -0.000001 0.000029 -3.007800 -5.000136 -8.000078 -0.000014 -4.733401 64.078314 6.063148 -45.111108 105.470210 31.550273 0.000003 -0.000022 0.000002 5.497513 3.779350 0.702755 0.000001 0.000011 3.000001 -5.000223 7.999601 -0.000049 3.540705 -176.123395 3.868243 -179.999991 0.000005 -1.210004 174.872691 -1.635433 -0.470730 -0.000003 -0.000004 0.056733 69.165740 6.948379 1.994729 25.456953 -7.355616 0.000002 4.056542 174.562573 -2.866580 -0.000020 -0.000004 -1.193420 -7.438110 2.678027 0.338737 0.000000 0.000001 -0.139624 70.350129 -6.901359 -1.999868 25.456952 7.355615 -0.000002 
58.487301 -26.263023 96.954086 -4.523408 -0.003523 2.276621 -0.662760 -0.077592 -0.336752 2.676880 -0.155062 -0.659819 4.321918 -0.162929 -0.657911 7.997467 4.369563 1.493353 8.721945 -3.559693 1.777437 -15.379387 -69.788277 -18.407117 -55.902083 -101.142650 -30.985027 0.000000 -0.000000 0.000001 14.066725 1.589393 -1.053558 -0.000000 0.000029 -3.007802 -5.000136 -8.000078 -0.000014 -4.736085 64.080732 6.066441 -44.880224 105.397353 31.315000 0.000003 -0.000023 0.000002 5.628140 3.790258 0.697552 0.000002 0.000010 3.000000 -5.000221 7.999600 -0.000049 3.522755 -176.120321 3.866764 -179.999991 0.000006 -1.210004 174.872104 -1.636425 -0.470836 -0.000004 -0.000004 0.056733 69.162584 6.948398 1.994732 25.456955 -7.355614 0.000002 4.040813 174.565469 -2.864028 -0.000020 -0.000004 -1.193389 -7.441298 2.680537 0.338859 0.000001 0.000001 -0.139625 70.349712 -6.901386 -1.999901 25.456955 7.355615 -0.000003 
